# xmcd
#
# Track frame offsets:
#	150
#	29258
#	45550
#	64741
#	85477
#	103712
#	119181
#	136368
#	152664
#	170439
#	181578
#	197321
#	213945
#	230321
#	244741
#	259489
#	273500
#	289302
#	305570
#
# Disc length: 4341 seconds
#
# Revision: 0
# Processed by: cddbd v1.4PL0 Copyright (c) Steve Scherf et al.
# Submitted via: audiograbber 1.80.04
#
DISCID=1410f313
DTITLE=Country Artists - Hit Country
DYEAR=2002
DGENRE=Country
TTITLE0=Brooks and Dunn - Boot Scootin Boogie (Dance Mix)
TTITLE1=BlackHawk - Every Once In A While
TTITLE2=Garth Brooks - Friends in Low Places
TTITLE3=Martina Mcbride - Blessed
TTITLE4=Mary Chapin Carpenter - He thinks he'll keep her
TTITLE5=Kathy Mattea - Walking Away A Winner
TTITLE6=Garth Brooks - Standing Outside The Fire
TTITLE7=John Berry - I Think About It All The Time
TTITLE8=Alan Jackson - Chatahoochee
TTITLE9=John Michael Montgomery - Sold  (The Grundy County Auction Incident)
TTITLE10=Toby Keith - Should've Been a Cowboy
TTITLE11=Little Texas - Kick a Little
TTITLE12=Shania Twain - That Don't Impress Me Much
TTITLE13=Sawyer Brown - Some Girls Do
TTITLE14=Steve Azar - I Don't Have To Be Me ('Til Monday)
TTITLE15=Faith Hill - The Way You Love Me
TTITLE16=Phil Vassar - Thats When I Love You
TTITLE17=Tim Mcgraw - My Next Thirty Years
TTITLE18=LeAnn Rimes - How Do I Live
EXTD=
EXTT0=
EXTT1=
EXTT2=
EXTT3=
EXTT4=
EXTT5=
EXTT6=
EXTT7=
EXTT8=
EXTT9=
EXTT10=
EXTT11=
EXTT12=
EXTT13=
EXTT14=
EXTT15=
EXTT16=
EXTT17=
EXTT18=
PLAYORDER=
